<svg xmlns="http://www.w3.org/2000/svg" width="18.894" height="18.854" viewBox="0 0 18.894 18.854">
  <path id="Path_411" data-name="Path 411" d="M17.675,306.65v-6.112l-3.855-2.3v8.711L12.7,306.9V291.838l-1.567-.17c-.034-.429-.063-.792-.091-1.148l-.724-.263-.185-1.278-.914.128c-.025.41-.045.742-.068,1.119l-.751.3L8.273,291.7l-1.52.132v15.08H5.572V294.7L1.2,296.868v9.823l-1.2.841.3.3H18.67l.224-.273-1.219-.908m-8.489-1.479H8.125v-.894h1.06Zm0-2.235H8.125v-.894h1.06Zm0-2.235H8.125v-.894h1.06Zm0-2.235H8.125v-.894h1.06Zm0-2.235H8.125v-.894h1.06Zm0-2.235H8.125V293.1h1.06Zm2.121,11.174h-1.06v-.894h1.06Zm0-2.235h-1.06v-.894h1.06Zm0-2.235h-1.06v-.894h1.06Zm0-2.235h-1.06v-.894h1.06Zm0-2.235h-1.06v-.894h1.06Zm0-2.235h-1.06V293.1h1.06Z" transform="translate(0 -288.977)" fill="current"/>
</svg>
