<svg xmlns="http://www.w3.org/2000/svg" width="27.521" height="24.315" viewBox="0 0 27.521 24.315">
  <path id="Icon_awesome-comment-dots" data-name="Icon awesome-comment-dots" d="M12.751,2.25C5.708,2.25,0,6.887,0,12.611a9.2,9.2,0,0,0,2.839,6.51A12.672,12.672,0,0,1,.11,23.893a.4.4,0,0,0-.075.433.39.39,0,0,0,.364.239A11.391,11.391,0,0,0,7.4,22a15.191,15.191,0,0,0,5.35.966c7.043,0,12.751-4.637,12.751-10.361S19.795,2.25,12.751,2.25ZM6.376,14.2A1.594,1.594,0,1,1,7.97,12.611,1.592,1.592,0,0,1,6.376,14.2Zm6.376,0a1.594,1.594,0,1,1,1.594-1.594A1.592,1.592,0,0,1,12.751,14.2Zm6.376,0a1.594,1.594,0,1,1,1.594-1.594A1.592,1.592,0,0,1,19.127,14.2Z" transform="translate(1.018 -1.25)" fill="none" stroke="current" stroke-width="2"/>
</svg>
