<svg id="Component_3_1" data-name="Component 3 – 1" xmlns="http://www.w3.org/2000/svg" width="31" height="31" viewBox="0 0 31 31">
  <path id="Path_28" data-name="Path 28" d="M302.75,450.25a15.5,15.5,0,1,1,15.5-15.5A15.518,15.518,0,0,1,302.75,450.25Z" transform="translate(-287.25 -419.25)" fill="#ba39ba"/>
  <path id="Path_29" data-name="Path 29" d="M310.78,435.6h-6.517v-6.517a.582.582,0,0,0-1.164,0v6.445a.072.072,0,0,1-.072.072h-6.445a.582.582,0,1,0,0,1.164H303.1v6.517a.582.582,0,1,0,1.164,0v-6.517h6.517a.582.582,0,0,0,0-1.164Z" transform="translate(-288.34 -420.521)" fill="#fff" stroke="#fff" stroke-width="1"/>
</svg>
