<svg xmlns="http://www.w3.org/2000/svg" width="58" height="55.441" viewBox="0 0 58 55.441">
  <g id="Group_39" data-name="Group 39" transform="translate(-197.979 -734.624)">
    <path id="Path_55" data-name="Path 55" d="M252.179,757.655c-1.17-.84-2.51-1.79-2.77-2.59s.25-2.47.72-3.88c.71-2.13,1.44-4.32.31-5.88s-3.46-1.55-5.73-1.53c-1.48,0-3.15,0-3.87-.5s-1.2-2.1-1.64-3.49c-.68-2.17-1.38-4.43-3.22-5.02s-3.64.78-5.42,2.1c-1.26.89-2.58,1.91-3.58,1.91s-2.32-1-3.54-1.91c-1.78-1.32-3.62-2.68-5.46-2.1s-2.58,2.85-3.26,5c-.44,1.39-.93,3-1.64,3.49s-2.4.51-3.87.5c-2.25,0-4.59,0-5.73,1.53s-.4,3.75.31,5.88c.47,1.41,1,3,.72,3.88s-1.53,1.77-2.73,2.61c-1.87,1.32-3.8,2.7-3.8,4.7s1.93,3.38,3.8,4.7c1.17.84,2.51,1.79,2.77,2.59s-.25,2.47-.72,3.88c-.71,2.13-1.44,4.32-.31,5.88s3.46,1.55,5.73,1.53c1.47,0,3.15,0,3.87.5s1.2,2.1,1.64,3.49c.68,2.17,1.38,4.41,3.26,5a2.954,2.954,0,0,0,.89.14c1.51,0,3-1.14,4.53-2.24,1.22-.89,2.59-1.91,3.54-1.91s2.32,1,3.54,1.91c1.78,1.32,3.62,2.68,5.42,2.1s2.58-2.85,3.26-5c.44-1.39.93-3,1.64-3.49s2.4-.52,3.87-.5c2.25,0,4.59,0,5.73-1.53s.4-3.75-.31-5.88c-.47-1.41-1-3-.72-3.88s1.57-1.75,2.77-2.59c1.87-1.32,3.8-2.7,3.8-4.7S254.049,758.975,252.179,757.655Z" fill="current"/>
    <path id="Path_57" data-name="Path 57" d="M226.849,755.835a5.659,5.659,0,1,0-1.658,3.993,5.66,5.66,0,0,0,1.658-3.993Zm-9.3,0a3.66,3.66,0,1,1,1.072,2.578,3.65,3.65,0,0,1-1.072-2.578Z" fill="#fff"/>
    <path id="Path_58" data-name="Path 58" d="M233.469,762.455a5.661,5.661,0,1,0,3.992,1.658,5.648,5.648,0,0,0-3.992-1.658Zm0,9.3a3.66,3.66,0,1,1,2.578-1.072,3.65,3.65,0,0,1-2.578,1.072Z" fill="#fff"/>
    <path id="Path_59" data-name="Path 59" d="M236.149,753.185a1,1,0,0,0-1.41,0l-16.93,16.93a1,1,0,0,0,1.41,1.41l16.93-16.93a1,1,0,0,0,0-1.41Z" fill="#fff"/>
  </g>
</svg>
