<svg id="Layer_2" data-name="Layer 2" xmlns="http://www.w3.org/2000/svg" width="19" height="18" viewBox="0 0 13.152 13.139">
  <g id="Layer_1" data-name="Layer 1">
    <path id="Path_397" data-name="Path 397" d="M16.587.8c-.051.244-.106.488-.152.736Q15.906,4.366,15.4,7.2c-.051.285-.11.566-.152.851a.189.189,0,0,1-.138.156L11.825,9.661c-.4.175-.81.354-1.21.538a.138.138,0,0,1-.179-.032L6.42,6.151a.129.129,0,0,1-.032-.17q1-2.254,2.01-4.513a.2.2,0,0,1,.124-.087L15.349.1c.156-.028.308-.064.46-.1h.051a1.141,1.141,0,0,1-.087.12L12.6,3.289a.239.239,0,0,1-.262.083,1.182,1.182,0,1,0,.869.86.184.184,0,0,1,.055-.2c.193-.184.382-.373.566-.561l2.76-2.76Z" transform="translate(-3.439)" fill="#fff"/>
    <path id="Path_398" data-name="Path 398" d="M18.673,9.361a.409.409,0,0,0-.414-.391.4.4,0,1,0,.023.791A.4.4,0,0,0,18.673,9.361Z" transform="translate(-9.652 -4.843)" fill="#fff"/>
    <path id="Path_399" data-name="Path 399" d="M7.19,18.52,5.548,20.158,0,14.624,1.638,13Z" transform="translate(0 -7.02)" fill="#fff"/>
    <path id="Path_400" data-name="Path 400" d="M18.758,9.377a.4.4,0,0,1-.391.4A.4.4,0,0,1,18.344,9,.409.409,0,0,1,18.758,9.377Z" transform="translate(-9.737 -4.86)" fill="#fff"/>
  </g>
</svg>
