<svg xmlns="http://www.w3.org/2000/svg" width="19" height="18" viewBox="0 0 20.517 24.294">
  <g id="hotel" transform="translate(-1237.156 683.22)">
    <g id="Group_78" data-name="Group 78" transform="translate(1237.156 -683.22)">
      <path id="Path_105" data-name="Path 105" d="M1247.392-633.475h-9.349c-.1,0-.195,0-.291,0a.643.643,0,0,1-.6-.608.624.624,0,0,1,.523-.639,3.863,3.863,0,0,1,.725-.028c.249.013.342-.063.336-.327-.017-.7-.005-1.4-.005-2.1q0-6.787.009-13.574a2.057,2.057,0,0,1,.214-.915,1.173,1.173,0,0,1,1.124-.6q1.806,0,3.611,0h10.892a1.319,1.319,0,0,1,1.5,1.5q0,7.748,0,15.5c0,.559-.067.5.521.509a3.778,3.778,0,0,1,.522.028.629.629,0,0,1,.536.657.642.642,0,0,1-.609.595c-.1.006-.194,0-.291,0Zm-1.337-6.98a.547.547,0,0,0-.022.09c0,1.8,0,3.591-.008,5.386,0,.225.125.222.28.222.737,0,1.475-.009,2.212,0,.242,0,.285-.094.284-.31-.007-1.708,0-3.416,0-5.124,0-.084-.011-.169-.017-.268Zm-4.729-9.088v2.72h2.729v-2.72Zm4.717,0v2.723h2.732v-2.723Zm7.458,0h-2.751c0,.871,0,1.722.01,2.572,0,.058.147.161.227.162.775.012,1.55.008,2.325.006a.981.981,0,0,0,.19-.038ZM1241.324-645v2.723h2.733V-645Zm7.455,2.722v-2.714h-2.738v2.714Zm1.972-2.728c0,.881,0,1.732.01,2.582,0,.058.147.161.227.162.775.012,1.55.008,2.325.005a.882.882,0,0,0,.179-.035v-2.714Zm-6.691,7.273v-2.714h-2.737v2.714Zm6.691-2.722c0,.872,0,1.714,0,2.556,0,.193.116.19.249.19h2.5v-2.745Z" transform="translate(-1237.156 657.768)" fill="#fff"/>
      <path id="Path_106" data-name="Path 106" d="M1282.217-681.555c.477-.073.894-.146,1.314-.2a.388.388,0,0,0,.34-.259c.174-.376.366-.745.588-1.191.191.383.378.7.505,1.031a.657.657,0,0,0,.649.455c.344.027.685.1,1.113.159-.3.3-.535.564-.8.785a.677.677,0,0,0-.247.787c.088.332.117.68.183,1.092-.415-.217-.779-.391-1.127-.594a.47.47,0,0,0-.535,0c-.348.2-.713.379-1.136.6.074-.444.125-.815.2-1.18a.583.583,0,0,0-.194-.642C1282.782-680.951,1282.532-681.236,1282.217-681.555Z" transform="translate(-1274.202 683.204)" fill="#fff"/>
      <path id="Path_107" data-name="Path 107" d="M1316.919-678.889c-.437-.229-.8-.408-1.152-.608a.429.429,0,0,0-.482,0c-.359.206-.733.386-1.167.612.079-.474.136-.881.22-1.282a.439.439,0,0,0-.141-.463c-.3-.283-.58-.587-.908-.922.387-.059.726-.133,1.069-.155a.664.664,0,0,0,.666-.475,10.7,10.7,0,0,1,.5-1.014,6.971,6.971,0,0,1,.373.758.955.955,0,0,0,1,.76,4.851,4.851,0,0,1,.833.123c-.312.329-.591.634-.883.925a.405.405,0,0,0-.147.427C1316.787-679.8,1316.837-679.391,1316.919-678.889Z" transform="translate(-1299.747 683.204)" fill="#fff"/>
      <path id="Path_108" data-name="Path 108" d="M1251.384-681.576c.371-.055.719-.127,1.071-.153a.64.64,0,0,0,.629-.442c.131-.339.317-.657.511-1.049.211.425.4.78.565,1.148a.464.464,0,0,0,.428.316c.327.03.652.089.978.139.073.011.144.034.243.059-.312.321-.592.626-.892.91a.438.438,0,0,0-.141.463c.084.4.141.8.223,1.281-.355-.185-.663-.315-.937-.5a.739.739,0,0,0-.923,0,9.6,9.6,0,0,1-.938.494c.078-.487.127-.905.218-1.315a.408.408,0,0,0-.146-.427C1251.979-680.941,1251.7-681.245,1251.384-681.576Z" transform="translate(-1248.853 683.22)" fill="#fff"/>
    </g>
  </g>
</svg>
