<svg xmlns="http://www.w3.org/2000/svg" width="14.687" height="19.583" viewBox="0 0 14.687 19.583">
  <path id="Icon_awesome-hand-point-up" data-name="Icon awesome-hand-point-up" d="M5.188,0A1.725,1.725,0,0,1,6.865,1.713V5.533a1.881,1.881,0,0,1,2.713.241,1.752,1.752,0,0,1,2.383.629c1.88-.343,2.726.839,2.726,2.777,0,.105-.008.508-.007.612.006,2.37-1.188,2.941-1.465,4.732a.917.917,0,0,1-.907.775H5.747A1.836,1.836,0,0,1,4.07,14.21c-.5-1.1-1.876-3.649-2.957-4.113A1.63,1.63,0,0,1,0,8.567,1.837,1.837,0,0,1,2.559,6.88a5.2,5.2,0,0,1,.953.541V1.713A1.752,1.752,0,0,1,5.188,0ZM5.2,15.911h7.344a.918.918,0,0,1,.918.918v1.836a.918.918,0,0,1-.918.918H5.2a.918.918,0,0,1-.918-.918V16.829A.918.918,0,0,1,5.2,15.911Zm6.426,1.071a.765.765,0,1,0,.765.765A.765.765,0,0,0,11.627,16.982Z" fill="#fff"/>
</svg>
