<svg xmlns="http://www.w3.org/2000/svg" width="27.956" height="32.93" viewBox="0 0 27.956 32.93">
  <path id="path" d="M33.44,13.978A13.93,13.93,0,0,0,15.722.525L15.694.506c-.006.01-.011.02-.018.029A13.945,13.945,0,0,0,7.766,21.61H6.142V32.93H32.784V21.61H31.16A13.865,13.865,0,0,0,33.44,13.978Zm-1.39-.676H27.011A25.461,25.461,0,0,0,26.49,8.89H31A12.466,12.466,0,0,1,32.049,13.3ZM30.294,7.53H26.156a23.747,23.747,0,0,0-2.142-5.313A12.7,12.7,0,0,1,30.294,7.53ZM20.142,1.392a12.535,12.535,0,0,1,1.934.242,22.275,22.275,0,0,1,2.681,5.9H20.142V1.392Zm0,7.5h4.964a24.079,24.079,0,0,1,.553,4.412H20.143V8.89Zm0,5.766h5.528a23.884,23.884,0,0,1-.482,4.413H20.142Zm0,5.77h4.719c-.111.4-.237.792-.367,1.185H20.141V20.427ZM16.558,1.707a12.665,12.665,0,0,1,2.227-.315v6.14H14.065A22.483,22.483,0,0,1,16.558,1.707Zm-3.3,11.6a23.957,23.957,0,0,1,.482-4.412h5.047V13.3Zm5.529,1.354v4.413H13.819a24.182,24.182,0,0,1-.551-4.413ZM14.654,2.316a23.931,23.931,0,0,0-1.986,5.217H8.63A12.684,12.684,0,0,1,14.654,2.316ZM7.921,8.89H12.36A25.549,25.549,0,0,0,11.9,13.3H6.874A12.545,12.545,0,0,1,7.921,8.89ZM6.875,14.656h5.038a25.423,25.423,0,0,0,.522,4.413H7.922A12.506,12.506,0,0,1,6.875,14.656Zm5.9,5.77c.109.4.231.792.359,1.185H9.447a13,13,0,0,1-.815-1.185ZM14.335,30.3v.66H9.119V23.577h1.542v6.072h3.673Zm-.166-9.877h4.614v1.185H14.558C14.421,21.219,14.284,20.828,14.169,20.427Zm2.343,10.537H14.969V23.577h1.542Zm4.515,0H19.561l-2.5-7.387H18.7l1.623,5.636,1.618-5.636H23.53Zm8.778-.66v.66H24.2V23.577h5.435v1.312H25.742v1.567h3.611v1.27H25.742V29.65h4.066V30.3h0Zm-.326-8.692H25.92c.119-.393.234-.786.336-1.185h4.038A12.892,12.892,0,0,1,29.48,21.612ZM26.565,19.07a25.635,25.635,0,0,0,.463-4.413h5.022A12.48,12.48,0,0,1,31,19.07Z" transform="translate(-5.484)"/>
</svg>
