<svg xmlns="http://www.w3.org/2000/svg" width="20" height="20" viewBox="0 0 18.76 24.162">
  <g id="management" transform="translate(1467.074 1456.466)">
    <g id="Group_69" data-name="Group 69" transform="translate(-1467.074 -1456.466)">
      <path id="Path_83" data-name="Path 83" d="M-1465.972-1332.188a2.839,2.839,0,0,1-1.1-2.552c.047-2.068,0-4.139.112-6.2a3.867,3.867,0,0,1,3.482-3.72c2.4-.355,2.4-.355,3.238,1.932.622,1.706,1.229,3.419,1.885,5.112a5.046,5.046,0,0,0,.7,1.006,5.114,5.114,0,0,0,.639-.967c.805-2.139,1.594-4.285,2.346-6.444.26-.747.629-1.1,1.458-.858.507.146,1.053.152,1.575.252a4.031,4.031,0,0,1,3.218,3.5c.121,2.313.073,4.635.1,6.953a2.516,2.516,0,0,1-1.073,1.988Z" transform="translate(1467.074 1356.349)" fill="#fff"/>
      <path id="Path_84" data-name="Path 84" d="M-1422.137-1451.649a4.775,4.775,0,0,1,4.752-4.816,4.768,4.768,0,0,1,4.853,4.808,4.837,4.837,0,0,1-4.845,4.855A4.841,4.841,0,0,1-1422.137-1451.649Z" transform="translate(1426.729 1456.466)" fill="#fff"/>
      <path id="Path_85" data-name="Path 85" d="M-1386.445-1342.245a3.465,3.465,0,0,1-.757-3.007,2.742,2.742,0,0,0-.346-2.309c-.414-.564-.111-1.017.581-1.111a3.713,3.713,0,0,1,1.026,0c.756.111,1,.549.552,1.185a2.585,2.585,0,0,0-.319,2.132A3.563,3.563,0,0,1-1386.445-1342.245Z" transform="translate(1395.843 1359.718)" fill="#fff"/>
    </g>
  </g>
</svg>
