<svg xmlns="http://www.w3.org/2000/svg" width="23.751" height="27.217" viewBox="0 0 23.751 27.217">
  <path id="news" d="M932.948-1131.051c0-.122,0-.245-.006-.366a1.3,1.3,0,0,0-1-1.293,5.121,5.121,0,0,0-.954-.088q-9.878-.008-19.756,0c-.173,0-.347,0-.52.014-1.039.1-1.47.624-1.506,1.816-.005.183,0,.366,0,.55q0,9.413,0,18.826,0,2.084,0,4.168c0,1.092.417,1.856,1.615,1.842,3.426-.04,6.852-.014,10.278-.014h7.439c1.053,0,2.106.008,3.159,0a1.291,1.291,0,0,0,1.254-1.4c0-.107,0-.214,0-.321Q932.949-1119.188,932.948-1131.051ZM930.2-1120.91c0,.556-.046.615-.518.616q-3.836,0-7.672,0c-.491,0-.532-.058-.532-.646s.044-.638.538-.64c1.279,0,2.557,0,3.836,0s2.557,0,3.836,0C930.16-1121.577,930.2-1121.513,930.2-1120.91Zm-17.018-8.921s15.888-.1,17.018,0c.044.675,0,3.874,0,3.874s-15.431.071-17.018,0C913.219-1126.735,913.182-1129.831,913.182-1129.831Zm-1.386,8.771c0-.548.047-.6.529-.6q3.356,0,6.712,0c.48,0,.53.059.531.6,0,1.358,0,2.715,0,4.073h0c0,1.358,0,2.715,0,4.073,0,.548-.047.6-.532.6q-3.356.006-6.712,0c-.484,0-.527-.05-.528-.6Q911.791-1116.987,911.8-1121.059Zm17.837,12.221q-4.338,0-8.675,0h-8.515c-.591,0-.849-.441-.61-1.063a.424.424,0,0,1,.235-.2.9.9,0,0,1,.317-.021q8.615,0,17.231,0c.543,0,.583.048.584.633C930.2-1108.889,930.162-1108.838,929.633-1108.838Zm.059-3.483q-.969,0-1.938,0H923.9q-.959,0-1.918,0c-.457,0-.5-.066-.5-.633,0-.583.04-.649.487-.65q3.876-.005,7.752,0c.443,0,.485.068.483.655C930.2-1112.386,930.154-1112.323,929.693-1112.321Zm.507-4.6c0,.609-.034.649-.568.651-1.264,0-2.528,0-3.792,0s-2.528,0-3.792,0c-.542,0-.571-.041-.57-.694,0-.625.034-.673.548-.673q3.812,0,7.625,0C930.172-1117.633,930.2-1117.586,930.2-1116.917Z" transform="translate(-909.198 1132.802)"/>
</svg>
