<svg xmlns="http://www.w3.org/2000/svg" width="21.466" height="21.544" viewBox="0 0 21.466 21.544">
  <g id="Group_35" data-name="Group 35" transform="translate(-294.191 -646.005)">
    <g id="Group_31" data-name="Group 31" transform="translate(294.191 646.005)">
      <path id="Path_34" data-name="Path 34" d="M294.2,658.706c0-2.238-.013-4.476,0-6.713q.027-3.866,3.9-3.868c3.357-.007,6.713-.014,10.07.015a1.684,1.684,0,0,1,1.166.393c.476.572-.038,1.209-.963,1.213-3.085.011-6.171,0-9.256,0-3.026,0-3.3.269-3.3,3.3q0,6,0,12c0,1.958.58,2.526,2.564,2.527q6.357,0,12.715,0c1.951,0,2.536-.592,2.538-2.555q0-4.933,0-9.867c0-.578-.076-1.24.8-1.233.841.006.828.642.828,1.234,0,3.458.02,6.917-.006,10.375a3.422,3.422,0,0,1-3.623,3.661q-6.916.064-13.833,0a3.422,3.422,0,0,1-3.6-3.677C294.177,663.25,294.2,660.978,294.2,658.706Z" transform="translate(-294.191 -647.688)" fill="current"/>
      <path id="Path_35" data-name="Path 35" d="M353.021,655.879c-.276-.2-.585-.333-.718-.563a1,1,0,0,1,.018-.745,1.774,1.774,0,0,1,.46-.53q3.722-3.732,7.448-7.459c.376-.376.738-.893,1.344-.327s.291,1-.163,1.453q-3.812,3.785-7.617,7.576A8.221,8.221,0,0,1,353.021,655.879Z" transform="translate(-340.434 -646.005)" fill="current"/>
    </g>
  </g>
</svg>
