<svg xmlns="http://www.w3.org/2000/svg" width="18" height="23.625" viewBox="0 0 18 23.625">
  <path id="Icon_ionic-md-lock" data-name="Icon ionic-md-lock" d="M22.5,11.109H21.375V8.859a5.625,5.625,0,1,0-11.25,0v2.25H9a2.256,2.256,0,0,0-2.25,2.25v11.25A2.256,2.256,0,0,0,9,26.859H22.5a2.256,2.256,0,0,0,2.25-2.25V13.359A2.256,2.256,0,0,0,22.5,11.109ZM15.75,21.347A2.25,2.25,0,1,1,18,19.1,2.256,2.256,0,0,1,15.75,21.347Zm3.488-10.238H12.262V8.859a3.488,3.488,0,1,1,6.975,0Z" transform="translate(-6.75 -3.234)" fill="current"/>
</svg>
