<svg xmlns="http://www.w3.org/2000/svg" width="26" height="26" viewBox="0 0 26 26">
  <g id="Group_132" data-name="Group 132" transform="translate(243.71 1703.71)">
    <circle id="Ellipse_19" data-name="Ellipse 19" cx="13" cy="13" r="13" transform="translate(-243.71 -1703.71)" fill="#e0b02a"/>
    <g id="Icon_feather-shopping-cart" data-name="Icon feather-shopping-cart" transform="translate(-237.802 -1697.802)">
      <path id="Path_101" data-name="Path 101" d="M13.89,30.945A.945.945,0,1,1,12.945,30,.945.945,0,0,1,13.89,30.945Z" transform="translate(-7.222 -17.467)" fill="none" stroke="#fff" stroke-linecap="round" stroke-linejoin="round" stroke-width="1"/>
      <path id="Path_102" data-name="Path 102" d="M30.39,30.945A.945.945,0,1,1,29.445,30,.945.945,0,0,1,30.39,30.945Z" transform="translate(-16.738 -17.467)" fill="none" stroke="#fff" stroke-linecap="round" stroke-linejoin="round" stroke-width="1"/>
      <path id="Path_103" data-name="Path 103" d="M1.5,1.5H4.326L6.219,9.314a1.378,1.378,0,0,0,1.413.94H14.5a1.378,1.378,0,0,0,1.413-.94l1.13-4.9H5.032" transform="translate(-1.5 -1.5)" fill="none" stroke="#fff" stroke-linecap="round" stroke-linejoin="round" stroke-width="1"/>
    </g>
  </g>
</svg>
