<svg xmlns="http://www.w3.org/2000/svg" width="33.53" height="23.471" viewBox="0 0 33.53 23.471">
  <path id="Icon_awesome-users" data-name="Icon awesome-users" d="M5.03,12.309A3.353,3.353,0,1,0,1.677,8.956,3.356,3.356,0,0,0,5.03,12.309Zm23.471,0a3.353,3.353,0,1,0-3.353-3.353A3.356,3.356,0,0,0,28.5,12.309Zm1.677,1.677H26.824a3.343,3.343,0,0,0-2.363.974A7.663,7.663,0,0,1,28.4,20.692h3.458a1.675,1.675,0,0,0,1.677-1.677V17.339A3.356,3.356,0,0,0,30.177,13.986Zm-13.412,0A5.868,5.868,0,1,0,10.9,8.118,5.865,5.865,0,0,0,16.765,13.986Zm4.024,1.677h-.435a8.1,8.1,0,0,1-7.178,0h-.435A6.037,6.037,0,0,0,6.706,21.7v1.509a2.515,2.515,0,0,0,2.515,2.515H24.309a2.515,2.515,0,0,0,2.515-2.515V21.7A6.037,6.037,0,0,0,20.789,15.662Zm-11.72-.7a3.343,3.343,0,0,0-2.363-.974H3.353A3.356,3.356,0,0,0,0,17.339v1.677a1.675,1.675,0,0,0,1.677,1.677H5.129A7.683,7.683,0,0,1,9.069,14.96Z" transform="translate(0 -2.25)" fill="current"/>
</svg>
