<svg xmlns="http://www.w3.org/2000/svg" width="19.475" height="13.912" viewBox="0 0 19.475 13.912">
  <g id="Group_425" data-name="Group 425" transform="translate(-283.093 -272.088)">
    <path id="Icon_material-person" data-name="Icon material-person" d="M12.822,12.822A3.411,3.411,0,1,0,9.411,9.411,3.41,3.41,0,0,0,12.822,12.822Zm0,1.706C10.545,14.528,6,15.671,6,17.939v1.706l13.5-.02s-2.2-2.087-4.525-4.8A6.093,6.093,0,0,0,12.822,14.528Z" transform="translate(277.093 266.088)" fill="current"/>
    <g id="Group_172" data-name="Group 172" transform="translate(124.033 -13.513)">
      <path id="Icon_awesome-heart" data-name="Icon awesome-heart" d="M7.169,2.723a2.121,2.121,0,0,0-2.894.211l-.306.315-.306-.315A2.121,2.121,0,0,0,.77,2.723,2.227,2.227,0,0,0,.617,5.947l3,3.1a.486.486,0,0,0,.7,0l3-3.1a2.226,2.226,0,0,0-.152-3.224Z" transform="translate(170.594 290.317)" fill="current"/>
    </g>
  </g>
</svg>
