<svg xmlns="http://www.w3.org/2000/svg" width="20" height="19" viewBox="0 0 24.93 24.294">
  <g id="footwear" transform="translate(2222.448 1665.783)">
    <path id="Path_102" data-name="Path 102" d="M-2197.727-1562.277a7.6,7.6,0,0,1-.517.8,3.106,3.106,0,0,1-2.476,1.172c-1.657,0-3.313-.016-4.971-.015a4.217,4.217,0,0,1-3.124-1.321q-6.392-6.424-12.819-12.812a2.409,2.409,0,0,1-.625-2.745,3.91,3.91,0,0,1,.486-.769c.114-.165.231-.161.382-.013.61.6,1.232,1.178,1.847,1.768l9.455,9.054q1.777,1.7,3.556,3.4a4.754,4.754,0,0,0,3.409,1.381c1.648-.007,3.3,0,4.943,0,.127,0,.254.013.381.02Z" transform="translate(0 -81.185)" fill="#fff"/>
    <path id="Path_103" data-name="Path 103" d="M-2178.517-1646.565a3.159,3.159,0,0,0-2.788-3.073c-.625-.057-1.257-.042-1.885-.045a.349.349,0,0,1-.375-.251c-.162-.414-.338-.823-.512-1.232-.149-.352-.152-.352-.5-.207l-1.873.773a.422.422,0,0,1-.532-.095.643.643,0,0,1-.12-.476.663.663,0,0,1,.351-.348c.616-.277,1.241-.534,1.87-.778.233-.09.269-.2.161-.414a8.047,8.047,0,0,1-.363-.872c-.079-.223-.184-.274-.414-.189-.66.243-1.326.466-1.994.686a.546.546,0,0,1-.72-.334c-.077-.246.08-.491.4-.6.48-.169.964-.327,1.443-.5.242-.086.622-.136.679-.3.069-.194-.128-.49-.226-.736-.157-.393-.327-.78-.5-1.194-.138.065-.237.11-.335.158l-1.9.92a.361.361,0,0,1-.479-.071.678.678,0,0,1-.134-.472.635.635,0,0,1,.324-.343c.591-.307,1.195-.59,1.794-.882.368-.179.368-.179.215-.545-.143-.342-.285-.684-.431-1.026a.992.992,0,0,0-1.576-.566,3.907,3.907,0,0,1-2.525.428,4.749,4.749,0,0,1-2.576-1.49,1.648,1.648,0,0,1-.525-1.046c-.041-.553-.053-1.11-.049-1.665a2.776,2.776,0,0,0-.861-2.069.942.942,0,0,0-1.242-.218l-.013-.016c-.007.005-.035.034-.081.081a1.561,1.561,0,0,0-.189.173c-.733.786-1.453,1.584-2.189,2.367a.533.533,0,0,0-.089.12l-.831.9c-.579.624-1.155,1.252-1.738,1.873-.135.143-.053.222.048.318,1.022.974,3,2.835,4.128,3.918l0,.007c.065.071.118.134.177.191q2.712,2.593,5.425,5.185,2.611,2.5,5.221,5a3.555,3.555,0,0,0,2.406,1.078c1.887.035,3.776.011,5.665.018.2,0,.276-.073.273-.276C-2178.523-1645.323-2178.512-1645.944-2178.517-1646.565Z" transform="translate(-19.003 0)" fill="#fff"/>
  </g>
</svg>
