<svg xmlns="http://www.w3.org/2000/svg" width="47.436" height="38" viewBox="0 0 47.436 38">
  <path id="Path_32" data-name="Path 32" d="M518.1,391.954l-21.334-15.949a2.736,2.736,0,0,0-3.162,0l-21.334,15.949a1.807,1.807,0,0,0-.7,2.084,2.34,2.34,0,0,0,2.285,1.443h5a.607.607,0,0,1,.554.237l1.609,15.765a2.08,2.08,0,0,0,2.139,2.019h7.962a.393.393,0,0,0,.4-.388v-14.35a.774.774,0,0,1,.78-.772h6.514a.773.773,0,0,1,.774.772v14.35a.393.393,0,0,0,.4.388h7.518a2.084,2.084,0,0,0,2.139-2.019l1.609-15.765a.607.607,0,0,1,.554-.237h4.71a2.34,2.34,0,0,0,2.285-1.443A1.807,1.807,0,0,0,518.1,391.954Z" transform="translate(-471.472 -375.502)" fill="current"/>
</svg>
