<svg xmlns="http://www.w3.org/2000/svg" width="52.015" height="50.001" viewBox="0 0 52.015 50.001">
  <g id="Group_37" data-name="Group 37" transform="translate(-492.815 -715.885)">
    <path id="Path_46" data-name="Path 46" d="M539.532,741.176a1.014,1.014,0,0,0-1.42,0,1.033,1.033,0,0,0-.29.71v22h-23v-18a1.033,1.033,0,0,0-.29-.71.99.99,0,0,0-.71-.29h-11a.99.99,0,0,0-.71.29,1.033,1.033,0,0,0-.29.71v18h-2v-22a1.033,1.033,0,0,0-.29-.71,1.014,1.014,0,0,0-1.42,0,1.033,1.033,0,0,0-.29.71v22h-.05v2h42.05v-24A1.033,1.033,0,0,0,539.532,741.176Z" fill="current"/>
    <path id="Path_47" data-name="Path 47" d="M535.532,745.176a.99.99,0,0,0-.71-.29h-17a.99.99,0,0,0-.71.29,1.033,1.033,0,0,0-.29.71v15a1.007,1.007,0,0,0,1,1h17a1.007,1.007,0,0,0,1-1v-15A1.033,1.033,0,0,0,535.532,745.176Z" fill="current"/>
    <path id="Path_48" data-name="Path 48" d="M492.822,736.886a5.96,5.96,0,0,0,1.19,3.57,6.033,6.033,0,0,0,3.08,2.17,11.53,11.53,0,0,0,2.73.16c.35-.05,3.311-1.148,3.592-5.151,1.264,4.213,2.811,5.145,5.408,5.241s4.7-2.221,4.914-5.241c.562,4.635,4.1,5.241,5.086,5.241a5.155,5.155,0,0,0,4.675-5.241c.983,4.143,4.335,5.241,5.325,5.241s3.874-.536,4.647-5.241c1.053,4.564,4,5.1,4.353,5.151a5.841,5.841,0,0,0,2,.01,6.421,6.421,0,0,0,.73-.17,6.033,6.033,0,0,0,3.08-2.17,5.961,5.961,0,0,0,1.19-3.57" fill="current"/>
    <path id="Path_49" data-name="Path 49" d="M539.822,716.586a1.042,1.042,0,0,0-.38-.52.981.981,0,0,0-.62-.18h-40a.981.981,0,0,0-.62.18,1.042,1.042,0,0,0-.38.52l-5,16v.11a.607.607,0,0,0,0,.19v4a.99.99,0,0,0,1,1h50a.99.99,0,0,0,1-1v-4a.609.609,0,0,0,0-.19v-.11Zm-47,19.3v-2h52v2Z" fill="current"/>
  </g>
</svg>
