<svg xmlns="http://www.w3.org/2000/svg" width="26.5" height="26.5" viewBox="0 0 26.5 26.5">
  <g id="Group_1" data-name="Group 1" transform="translate(-363.987 -380.529)">
    <path id="Path_30" data-name="Path 30" d="M365.071,397.038l17.218,9.507a2.226,2.226,0,0,0,2.963-.759,2.028,2.028,0,0,0-.794-2.833l-.47-.259,5.242-8.683a8.788,8.788,0,0,0-3.44-12.279,9.647,9.647,0,0,0-12.839,3.29l-5.241,8.683-.47-.259a2.226,2.226,0,0,0-2.963.759A2.028,2.028,0,0,0,365.071,397.038Z" transform="translate(0)" fill="current"/>
    <path id="Path_31" data-name="Path 31" d="M376.735,434.5c2.4,1.384,5.307.849,6.486-1.193l.28-.485-.476-.3-3.875-2.214L374.8,427.8l-.279.483C373.346,430.325,374.337,433.113,376.735,434.5Z" transform="translate(-5.767 -28.238)" fill="current"/>
  </g>
</svg>
