<svg xmlns="http://www.w3.org/2000/svg" width="26" height="20.8" viewBox="0 0 26 20.8">
  <path id="Icon_awesome-user-lock" data-name="Icon awesome-user-lock" d="M9.1,10.4A5.2,5.2,0,1,0,3.9,5.2,5.2,5.2,0,0,0,9.1,10.4ZM13,13a2.563,2.563,0,0,1,.329-1.239,5.56,5.56,0,0,0-.589-.061h-.678a7.072,7.072,0,0,1-5.923,0H5.46A5.461,5.461,0,0,0,0,17.159V18.85A1.95,1.95,0,0,0,1.95,20.8H13.362A2.581,2.581,0,0,1,13,19.5Zm11.7-1.3H23.4V8.45a3.25,3.25,0,0,0-6.5,0V11.7H15.6A1.3,1.3,0,0,0,14.3,13v6.5a1.3,1.3,0,0,0,1.3,1.3h9.1A1.3,1.3,0,0,0,26,19.5V13A1.3,1.3,0,0,0,24.7,11.7Zm-4.55,5.85a1.3,1.3,0,1,1,1.3-1.3A1.3,1.3,0,0,1,20.15,17.55Zm1.3-5.85h-2.6V8.45a1.3,1.3,0,1,1,2.6,0Z" fill="current"/>
</svg>
