<svg id="Group_388" data-name="Group 388" xmlns="http://www.w3.org/2000/svg" width="12.354" height="12.564" viewBox="0 0 12.354 12.564">
  <path id="Icon_material-person" data-name="Icon material-person" d="M9.094,9.094A1.547,1.547,0,1,0,7.547,7.547,1.547,1.547,0,0,0,9.094,9.094Zm0,.773C8.061,9.867,6,10.386,6,11.414v.773h6.188v-.773C12.188,10.386,10.127,9.867,9.094,9.867Z" transform="translate(-6 0.376)" fill="current"/>
  <path id="Icon_metro-suitcase" data-name="Icon metro-suitcase" d="M13.073,14.359l-6.356.106A2.282,2.282,0,0,0,4.6,11.615L4.5,9.557a17.465,17.465,0,0,0,3.43,1.3v.417a.343.343,0,0,0,.343.343H9.986a.343.343,0,0,0,.343-.343v-.417a17.475,17.475,0,0,0,3.43-1.3v4.116A.686.686,0,0,1,13.073,14.359Zm-3.43-4.116a.343.343,0,0,1,.343.343v.343a.343.343,0,0,1-.343.343H8.615a.343.343,0,0,1-.343-.343v-.343a.343.343,0,0,1,.343-.343Zm.686,0A.343.343,0,0,0,9.986,9.9H8.272a.343.343,0,0,0-.343.343v.307A17.18,17.18,0,0,1,4.5,9.214V7.842a.686.686,0,0,1,.686-.686H7.243V6.47a.686.686,0,0,1,.686-.686h2.4a.686.686,0,0,1,.686.686v.686h2.058a.686.686,0,0,1,.686.686V9.214a17.19,17.19,0,0,1-3.43,1.336Zm0-3.43a.343.343,0,0,0-.343-.343H8.272a.343.343,0,0,0-.343.343v.343h2.4Z" transform="translate(-1.405 -5.784)" fill="current"/>
</svg>
